<?xml version="1.0" encoding="UTF-8"?>
<svg width="100px" height="87px" viewBox="0 0 100 87" version="1.1" xmlns="http://www.w3.org/2000/svg" xmlns:xlink="http://www.w3.org/1999/xlink">
    <title>garlands</title>
    <g id="eCommerce-App---High-Fidelity-Design" stroke="none" stroke-width="1" fill="none" fill-rule="evenodd">
        <g id="Order-Confirmation-Screen" transform="translate(-145.000000, -105.000000)" fill="#FFFFFF" fill-rule="nonzero">
            <g id="Header" transform="translate(-0.000000, 0.000000)">
                <g id="garlands" transform="translate(145.000000, 105.000000)">
                    <path d="M37.9657069,56.4724114 L50.5860277,85.2598269 L61.8766601,56.4819814 C58.1127904,56.8783532 54.1413034,57.112557 50.0000898,57.112557 C45.8010636,57.112557 41.7762563,56.8745252 37.9657069,56.4724114 Z" id="Shape"></path>
                    <path d="M85.8612462,30.7597483 L87.6540208,5.95153679 C82.7460097,7.61915195 76.2960055,9.43136104 68.7331099,10.6798104 L85.8612462,30.7597483 Z" id="Shape"></path>
                    <path d="M2.26802715,73.5365828 L15.8705752,67.5048758 L23.4416739,79.3835018 L31.5655074,55.6208558 C22.7530016,54.2046705 15.4328796,52.0244516 10.2754543,50.1767465 L2.26802715,73.5365828 Z" id="Shape"></path>
                    <path d="M76.7712011,79.3835018 L84.3422999,67.5048758 L97.9448479,73.5365828 L89.890741,50.0403306 C84.7506986,51.9115257 77.4165141,54.1347225 68.568852,55.5824018 L76.7712011,79.3835018 Z" id="Shape"></path>
                    <path d="M38.9162934,11.6938819 L38.9162934,36.2097736 L50.0516523,26.8172583 L61.0840814,36.1227736 L61.0840814,11.6879659 C57.5565401,12.0349217 53.8514595,12.2371096 50.0000898,12.2371096 C46.1489154,12.2369356 42.4436395,12.0370097 38.9162934,11.6938819 Z" id="Shape"></path>
                    <path d="M13.9764333,30.7597483 L31.0074992,10.6544064 C23.4729239,9.40734905 17.0567088,7.61097396 12.1846352,5.96528278 L13.9764333,30.7597483 Z" id="Shape"></path>
                    <path d="M0.978963806,3.36189609 C1.15103423,3.45011405 4.50748175,5.15757519 10.315884,7.18885017 L12.0272133,30.8716302 C12.0797524,31.5975579 12.6334637,32.2178676 13.4156907,32.4266675 C13.6008471,32.4760834 13.7893238,32.4999214 13.9760427,32.4999214 C14.5781915,32.4999214 15.1598325,32.2512756 15.5352234,31.8079238 L31.8496872,12.5483955 C33.4983211,12.8046973 35.2035957,13.0369872 36.9629718,13.2349991 L36.9629718,36.2095996 C36.9629718,36.9047292 37.42723,37.5330429 38.1440273,37.8079628 C38.3926603,37.9033147 38.6551604,37.9495992 38.9157075,37.9495992 C39.4059422,37.9495992 39.8889503,37.7851688 40.2590678,37.4731869 L50.051457,29.2132371 L59.7411118,37.386187 C60.3079091,37.8641647 61.1395502,37.9958827 61.855957,37.7209628 C62.572559,37.4462169 63.0370124,36.8177293 63.0370124,36.1225996 L63.0370124,13.2271691 C64.7053729,13.0371612 66.3260771,12.8168773 67.8952187,12.5736255 L84.3059717,31.8126218 C84.6817532,32.2531896 85.2614411,32.4999214 85.8612462,32.4999214 C86.0489416,32.4999214 86.2387855,32.4757354 86.4247231,32.4257975 C87.2053877,32.2161276 87.7577318,31.5965139 87.8102709,30.8716302 L89.5225767,7.17284218 C95.4356665,5.09267322 98.8552,3.33370811 99.028833,3.24357615 C99.9608648,2.7603784 100.276295,1.69602093 99.7343022,0.86569335 C99.1927002,0.0351917681 97.997387,-0.24668809 97.0647692,0.235465667 C97.0149644,0.261043654 91.9958205,2.83641636 83.7069479,5.37594508 C76.0819429,7.7120679 64.0442396,10.4969365 50.0000898,10.4969365 C35.9530102,10.4969365 23.9131586,7.74182189 16.2865911,5.43040705 C7.99674186,2.91819632 2.97662137,0.370837599 2.92681665,0.345433612 C1.99244103,-0.133240147 0.798885562,0.153163709 0.260799271,0.98575329 C-0.27728702,1.81851687 0.044197566,2.88235234 0.978963806,3.36189609 Z M85.0868316,8.63304944 C85.2305817,8.58885346 85.3708162,8.54465749 85.5126131,8.50046151 L84.2487451,25.9931947 L72.1706122,11.8336038 C77.2233499,10.8675563 81.5995246,9.7052369 85.0868316,8.63304944 Z M40.8694197,13.6099689 C43.1619994,13.7924948 45.5299697,13.9129028 47.9606353,13.9570988 L48.0106354,20.2750356 C48.0180572,21.2318611 48.8911047,22.0028547 49.963371,22.0028547 C49.9680585,22.0028547 49.972746,22.0028547 49.9774335,22.0028547 C51.0559499,21.9960687 51.9245051,21.2116771 51.9168879,20.2506756 L51.8670832,13.9598828 C54.3581005,13.9177748 56.7842739,13.7949308 59.1309552,13.6061409 L59.1309552,32.0791896 L51.3944266,25.5536709 C50.6414965,24.9183972 49.4620035,24.9183972 48.7086827,25.5536709 L40.8694197,32.1661896 L40.8694197,13.6099689 L40.8694197,13.6099689 Z M14.9197933,8.69203541 C18.3481158,9.73464289 22.6369859,10.8633803 27.5821063,11.8092438 L15.5871765,25.9693567 L14.3258476,8.5091615 C14.5225274,8.57023547 14.7192072,8.63113544 14.9197933,8.69203541 Z" id="Shape"></path>
                    <path d="M0.978963806,36.0625696 C1.07290918,36.1107676 3.32642629,37.260559 7.3354133,38.7973263 C7.58717127,38.8938962 7.8488902,38.9394842 8.10650755,38.9394842 C8.86334399,38.9394842 9.58346165,38.5453744 9.90143061,37.8867847 C10.3277981,37.0040832 9.87018059,35.9804417 8.87935962,35.6007739 C5.10045089,34.1522246 2.94810573,33.0568951 2.92662134,33.0461072 C1.99224572,32.5676074 0.79869025,32.8538373 0.260603958,33.6864268 C-0.27728702,34.5191904 0.044197566,35.5830259 0.978963806,36.0625696 Z" id="Shape"></path>
                    <path d="M14.7346369,39.5115959 C14.3967461,40.4233554 14.9533871,41.4081949 15.9768252,41.7092148 C16.1799504,41.7683748 16.3869817,41.7962196 16.5901069,41.7962196 C17.4084668,41.7979547 18.1721392,41.333375 18.4436237,40.6025754 C18.7815146,39.6890758 18.2248736,38.7059763 17.2014354,38.4049565 C16.1760441,38.1021966 15.0725278,38.5980964 14.7346369,39.5115959 Z" id="Shape"></path>
                    <path d="M74.7204185,40.4964354 C74.5641684,40.4964354 74.4079183,40.5138354 74.2555745,40.5468954 C69.1676805,41.6535348 64.0018568,42.4243544 58.8983378,42.8367342 C58.3788062,42.8784942 57.9100559,43.0977341 57.5760713,43.4544339 C57.2420867,43.8111337 57.0836882,44.2635335 57.1307585,44.7263733 C57.1756804,45.1613731 57.40029,45.5633129 57.7616183,45.8556327 C58.1229467,46.1479526 58.5875954,46.3097725 59.0741192,46.3097725 C59.132713,46.3097725 59.1930646,46.3062925 59.2518537,46.3010725 C64.5463884,45.8747727 69.9079154,45.0743731 75.1831142,43.9277137 C76.228232,43.6997738 76.8725684,42.7566943 76.6169042,41.8240547 C76.4022556,41.0427951 75.6229582,40.4964354 74.7204185,40.4964354 Z" id="Shape"></path>
                    <path d="M25.7678473,40.5816954 C25.6174566,40.5486354 25.4631596,40.5312354 25.3088626,40.5312354 C24.4045651,40.5312354 23.6233146,41.0793351 23.412377,41.8640747 C23.28933,42.3164745 23.3713613,42.7827943 23.6428459,43.1795141 C23.9162836,43.5762339 24.3459714,43.8546337 24.8518311,43.9642537 C30.1272252,45.0987331 35.4885568,45.8869527 40.7854353,46.3097725 C40.8440291,46.3132525 40.9026229,46.3167325 40.9612167,46.3167325 C41.4475451,46.3167325 41.9123892,46.1549126 42.2737175,45.8625927 C42.6350459,45.5685329 42.8596554,45.1665931 42.904382,44.7298533 C42.9981321,43.7745938 42.2032097,42.9289542 41.1309433,42.8419542 C36.0274243,42.4365344 30.8596475,41.6761548 25.7678473,40.5816954 Z" id="Shape"></path>
                    <path d="M83.4335102,38.2553165 C83.2245257,38.2553165 83.0155412,38.2866365 82.8143692,38.3457965 C82.3202282,38.4936964 81.9198373,38.8034163 81.6854622,39.219276 C81.4532355,39.6351358 81.4159307,40.1066756 81.5799934,40.5468954 C81.8475717,41.258555 82.5919081,41.7370548 83.4335102,41.7370548 C83.6424947,41.7370548 83.8514792,41.7057348 84.0526512,41.6465748 C85.0741363,41.342075 85.6270663,40.3554955 85.287027,39.4454759 C85.0194487,38.7338163 84.2753076,38.2553165 83.4335102,38.2553165 Z" id="Shape"></path>
                    <path d="M50.0137617,43.198654 C48.9395422,43.198654 48.0645416,43.9799137 48.0645416,44.9386532 C48.0645416,45.8973927 48.9395422,46.6769123 50.0176679,46.6769123 C50.5391526,46.6769123 51.0293873,46.4959524 51.3985282,46.1670926 C51.7676691,45.8382327 51.9707942,45.4014929 51.9707942,44.9369132 C51.9707942,43.9781737 51.0938405,43.196914 50.0176679,43.196914 C50.0157148,43.196914 50.0157148,43.196914 50.0137617,43.198654 Z" id="Shape"></path>
                    <path d="M97.0651598,32.9359652 C97.044066,32.9469272 94.8966037,34.0516526 91.1266793,35.5132519 C90.1376162,35.8967477 89.6846862,36.9219552 90.1151552,37.8030908 C90.4350773,38.4582004 91.1530465,38.8491782 91.9069533,38.8491782 C92.1671097,38.8491782 92.431563,38.8025463 92.6852741,38.7042363 C96.6862533,37.1530271 98.9354735,35.9927957 99.0290283,35.9440757 C99.9610601,35.4608779 100.27649,34.3965205 99.7344975,33.5661929 C99.1928956,32.7356913 97.9975823,32.4539855 97.0651598,32.9359652 Z" id="Shape"></path>
                    <path d="M92.2749223,51.0383941 C96.4866438,49.4269809 98.8844969,48.1940175 99.0290283,48.1190236 C99.9612554,47.6356518 100.277271,46.5704243 99.7344975,45.7399228 C99.191919,44.9095952 97.9966057,44.6278893 97.0639879,45.1114351 C96.8659409,45.214095 76.96417,55.3725579 49.9998945,55.3725579 C35.9528149,55.3725579 23.9129633,52.6172693 16.2863957,50.3060285 C7.99654654,47.7936437 2.97662137,45.246285 2.92681665,45.220881 C1.99244103,44.7422073 0.798885562,45.0286111 0.260799271,45.8612007 C-0.27728702,46.6939643 0.044197566,47.7577998 0.978963806,48.2373435 C1.12544828,48.3125115 3.57857489,49.5609608 7.88795272,51.18351 L0.400057175,73.028329 C0.172127338,73.6931827 0.410408744,74.4151083 1.00591695,74.8643761 C1.60122984,75.3136439 2.43990227,75.4041238 3.13853554,75.09423 L15.0854184,69.7966287 L21.7432353,80.2425394 C22.0928449,80.7909871 22.7442125,81.123501 23.4410879,81.123501 C23.5125724,81.123501 23.5846427,81.120021 23.6567131,81.112887 C24.4324948,81.036327 25.0824953,80.5555652 25.3098392,79.8905376 L32.9346489,57.5877508 C34.1176575,57.7610547 35.3287911,57.9206126 36.5666825,58.0641626 L48.7666905,85.8930126 C49.0596595,86.5613462 49.7827068,87 50.5858324,87 C50.5975511,87 50.6094652,87 50.6213793,87 C51.4385673,86.986602 52.1602475,86.5215002 52.4299742,85.8342006 L63.3231454,58.0690346 C64.647951,57.9148706 65.9422878,57.7419147 67.2047886,57.5536468 L74.9042077,79.8945396 C75.1331141,80.5585232 75.7833099,81.037719 76.5583104,81.113409 C76.6297948,81.120369 76.7010839,81.123849 76.7719824,81.123849 C77.4688578,81.123849 78.1202255,80.7913351 78.4698351,80.2428874 L85.1276519,69.7969767 L97.0745348,75.094578 C97.7731681,75.4044718 98.6116452,75.3139919 99.2071534,74.8647241 C99.8026616,74.4154563 100.040748,73.6935307 99.8128178,73.028677 L92.2749223,51.0383941 Z M22.8967517,75.004968 L17.5688185,66.6456642 C17.0569041,65.8421326 15.9289736,65.5353708 15.0000668,65.9470546 L5.46177925,70.1766445 L11.5277989,52.4801574 C12.5889324,52.8379012 13.7190112,53.202431 14.9197933,53.5676568 C15.9094424,53.8685027 16.9723337,54.1766565 18.1004594,54.4855064 L16.2850286,60.1935735 C15.9908877,61.118209 16.5938178,62.0800805 17.6317091,62.3419504 C17.8096389,62.3868424 17.9889359,62.4082444 18.1651079,62.4082444 C19.016671,62.4082444 19.7996793,61.9081686 20.0432342,61.142221 L21.8539775,55.4491179 C24.0766352,55.9829496 26.4877696,56.4983374 29.0660916,56.9592631 L22.8967517,75.004968 Z M50.4844651,80.2451494 L40.9479354,58.4913323 C43.8536014,58.7206642 46.878408,58.8523822 50.0002851,58.8523822 C53.1104434,58.8523822 56.1239219,58.7201422 59.0198223,58.4899403 L50.4844651,80.2451494 Z M85.2126129,65.9472286 C84.2840967,65.5353708 83.1561663,65.8423066 82.6438612,66.6458382 L77.3092874,75.015756 L71.0710021,56.9145451 C73.3885817,56.4931174 75.5700285,56.0273196 77.6003032,55.5441218 L80.0411252,61.188505 C80.3397582,61.8796326 81.0796024,62.3034964 81.8639779,62.3034964 C82.0973765,62.3034964 82.3348767,62.2659124 82.5657362,62.1867425 C83.5721822,61.8413527 84.0741356,60.8342412 83.6860494,59.9376196 L81.3708135,54.5839903 C82.7001113,54.2227665 83.941909,53.8610207 85.0868316,53.5090189 C86.3493324,53.1209991 87.5340988,52.7335012 88.6417167,52.3540074 L94.7509005,70.1768185 L85.2126129,65.9472286 Z" id="Shape"></path>
                </g>
            </g>
        </g>
    </g>
</svg>